<svg xmlns="http://www.w3.org/2000/svg" width="51.985" height="46.753" viewBox="0 0 51.985 46.753">
  <path id="_" data-name="" d="M440.312,10483.939v3.857l9.367,5.26-.937,1.753-9.484-5.259-9.484,5.259-.937-1.753,9.367-5.26v-3.857H413.266v-35.883h51.985v35.883Zm-25.056-1.987h48v-31.908h-48Zm27.046-26.182,1.873.585-5.5,18.467-6.44-8.882-4.215,8.3-5.62-11.454-3.161,11.688-1.99-.468,4.566-16.715,6.205,12.507,3.981-7.715,5.971,8.3Zm15.221,5.961a5.875,5.875,0,0,1,1.756,4.325,5.734,5.734,0,0,1-1.756,4.208,5.9,5.9,0,0,1-4.332,1.753,5.991,5.991,0,0,1-5.971-5.961,5.875,5.875,0,0,1,1.756-4.325,5.756,5.756,0,0,1,4.215-1.752A5.9,5.9,0,0,1,457.523,10461.731Zm-1.464,7.13a3.815,3.815,0,0,0,0-5.61,4.041,4.041,0,0,0-2.869-1.169,3.994,3.994,0,0,0-3.981,3.975,3.727,3.727,0,0,0,1.229,2.8,3.894,3.894,0,0,0,2.751,1.169A4.029,4.029,0,0,0,456.06,10468.861Z" transform="translate(-413.266 -10448.057)" fill="#feb960"/>
</svg>
