<svg xmlns="http://www.w3.org/2000/svg" width="45.846" height="48.039" viewBox="0 0 45.846 48.039">
  <path id="_" data-name="" d="M850.043,10232.268a4.829,4.829,0,0,1-2.865,1.7v34.1h-1.988v-34.1a4.726,4.726,0,0,1-2.865-1.758,4.965,4.965,0,0,1-1.111-3.163,5,5,0,0,1,5.029-5.038,4.72,4.72,0,0,1,3.45,1.464,5.158,5.158,0,0,1,.351,6.8Zm-1.754-1.055a3.117,3.117,0,0,0,0-4.335,2.8,2.8,0,0,0-2.047-.879,3.047,3.047,0,1,0,0,6.094A2.806,2.806,0,0,0,848.288,10231.213Zm-34.151,32.632a4.976,4.976,0,0,1,1.111,3.163,5,5,0,0,1-5.029,5.039,4.707,4.707,0,0,1-3.45-1.465,5,5,0,0,1,2.515-8.5v-34.1h1.988v34.1A4.731,4.731,0,0,1,814.138,10263.845Zm-1.754,5.331a3.046,3.046,0,0,0-2.164-5.214,2.8,2.8,0,0,0-2.047.879,3.117,3.117,0,0,0,0,4.335,2.8,2.8,0,0,0,2.047.879A2.938,2.938,0,0,0,812.384,10269.176Zm19.765-24.312a5.06,5.06,0,0,1,0,6.327,4.732,4.732,0,0,1-2.865,1.758v15.115h-2.105v-15.115a4.727,4.727,0,0,1-2.865-1.758,5.06,5.06,0,0,1,0-6.327,4.731,4.731,0,0,1,2.865-1.758v-15.114h2.105v15.114A4.736,4.736,0,0,1,832.149,10244.863Zm-.877,3.163a3.212,3.212,0,1,0-.936,2.109A2.922,2.922,0,0,0,831.272,10248.026Z" transform="translate(-805.308 -10224.008)" fill="#38c695"/>
</svg>
