<svg xmlns="http://www.w3.org/2000/svg" width="47.951" height="47.922" viewBox="0 0 47.951 47.922">
  <path id="_" data-name="" d="M853.206,10447.473v47.922H805.255v-47.922Zm-45.963,1.987v9h43.975v-9Zm43.975,43.947v-32.961H807.244v32.961Zm-30.993-37.87h3.041v-3.039h-3.041Zm14.97,0h3.041v-3.039H835.2Zm-12.748,11.688H824.2v15.662H822.1v-11.1h-3.859v-1.637h.351c1.012-.076,1.7-.135,2.047-.175a1.953,1.953,0,0,0,1.111-.643,2.8,2.8,0,0,0,.7-1.754Zm15.613,6.545a5.5,5.5,0,0,1,1.462,3.975,5.217,5.217,0,0,1-1.637,3.915,5.38,5.38,0,0,1-3.86,1.578,5.257,5.257,0,0,1-3.8-1.4,4.794,4.794,0,0,1-1.462-3.624v-.35h2.105v.35a2.979,2.979,0,0,0,.935,2.28,3.289,3.289,0,0,0,2.339.876,2.889,2.889,0,0,0,2.4-1.11,4.113,4.113,0,0,0,.877-2.63,3.527,3.527,0,0,0-.935-2.513,3.225,3.225,0,0,0-2.456-.993,3.4,3.4,0,0,0-3.041,1.636l-.117.117h-1.754l1.637-8.416h8.07v1.987h-6.549l-.7,3.624a4.394,4.394,0,0,1,2.573-.819A5.191,5.191,0,0,1,838.061,10473.771Z" transform="translate(-805.255 -10447.473)" fill="#fc5f45"/>
</svg>
