<svg xmlns="http://www.w3.org/2000/svg" width="35.362" height="54.936" viewBox="0 0 35.362 54.936">
  <path id="_" data-name="" d="M1234.132,10471.843a17.28,17.28,0,0,1,2.693,9.409,17.681,17.681,0,0,1-35.362,0,17.265,17.265,0,0,1,2.693-9.409,16.8,16.8,0,0,1,7.143-6.371q-4.918-11.8-4.918-13.908v-7.6h25.526v7.6q0,1.638-4.918,13.908A16.825,16.825,0,0,1,1234.132,10471.843Zm-21.077-7.188a18.537,18.537,0,0,1,6.089-1.052,16.9,16.9,0,0,1,5.972,1.052q4.8-11.221,4.8-13.091v-5.61h-9.836v13.441h-1.991v-13.441h-9.719v5.61q0,1.521,4.684,13.091Zm21.779,16.6a15,15,0,0,0-4.625-11.1,15.709,15.709,0,0,0-22.131,0,15.642,15.642,0,0,0,0,22.208,15.709,15.709,0,0,0,22.131,0A15,15,0,0,0,1234.834,10481.252Zm-3.864,0a11.783,11.783,0,1,1-3.454-8.357A11.371,11.371,0,0,1,1230.97,10481.252Zm-1.99,0a9.523,9.523,0,0,0-2.869-6.9,9.765,9.765,0,0,0-13.934,0,9.723,9.723,0,0,0,0,13.792,9.767,9.767,0,0,0,13.934,0A9.516,9.516,0,0,0,1228.98,10481.252Z" transform="translate(-1201.463 -10443.966)" fill="#38c695"/>
</svg>
