<svg xmlns="http://www.w3.org/2000/svg" width="35.938" height="34.688" viewBox="0 0 35.938 34.688">
  <path id="_" data-name="" d="M1267.969,5472.968a5.206,5.206,0,0,1-1.562,3.828,5.113,5.113,0,0,1-3.75,1.563,5.03,5.03,0,0,1-4.609-2.657l-15.547,6.563a7.259,7.259,0,0,1,.156,1.406,5.7,5.7,0,0,1-.625,2.579l10,7.188a5.2,5.2,0,0,1,3.984-1.8,5.058,5.058,0,0,1,3.75,1.6,5.249,5.249,0,0,1,1.563,3.789,5.313,5.313,0,0,1-10.625,0,5.215,5.215,0,0,1,.547-2.5l-10-7.266a5.059,5.059,0,0,1-3.906,1.719,5.177,5.177,0,0,1-3.75-1.523,5.375,5.375,0,0,1,0-7.578,5.177,5.177,0,0,1,3.75-1.523,4.927,4.927,0,0,1,4.609,2.656l15.625-6.562a4.665,4.665,0,0,1-.234-1.485,5.313,5.313,0,0,1,10.625,0Zm-15.937,24.063a3.984,3.984,0,0,0,7.969,0,3.928,3.928,0,0,0-1.172-2.89,3.96,3.96,0,0,0-5.625,0,3.927,3.927,0,0,0-1.172,2.89Zm-10.7-13.359a4,4,0,1,0-1.172,2.813A3.836,3.836,0,0,0,1241.328,5483.671Zm25.313-10.7a3.984,3.984,0,0,0-7.969,0,3.926,3.926,0,0,0,1.172,2.891,3.961,3.961,0,0,0,5.625,0,3.926,3.926,0,0,0,1.172-2.891Z" transform="translate(-1232.031 -5467.655)" fill="#fc5f45"/>
</svg>
