<svg xmlns="http://www.w3.org/2000/svg" width="43.712" height="40" viewBox="0 0 43.712 40">
  <g id="Icon" transform="translate(-1376.754 -2241.016)">
    <path id="_" data-name="" d="M1404.534,2281.016v-30h15.933v30Zm.937-.937h14.058v-4.687h-14.058Zm0-5.625h14.058V2255.7h-14.058Zm0-19.687h14.058v-2.812h-14.058Zm-28.716,26.25v-40h27.491v40Zm1.25-1.249H1403v-6.25H1378Zm0-7.5H1403v-25H1378Zm0-26.251H1403v-3.75H1378Zm33.5,32.715a1.413,1.413,0,1,1,1,.41A1.354,1.354,0,0,1,1411.5,2278.731Zm.527-1a.468.468,0,1,0,.469-.468A.414.414,0,0,0,1412.032,2277.734Zm-22.859.235a1.883,1.883,0,1,1,1.328.547A1.806,1.806,0,0,1,1389.172,2277.969Zm.7-1.328a.625.625,0,1,0,.625-.625A.552.552,0,0,0,1389.875,2276.641Zm20.75-22.812v-.937h3.749v.937ZM1388,2244.767v-1.25h5v1.25Z" fill="#feb960"/>
  </g>
</svg>
