<svg xmlns="http://www.w3.org/2000/svg" width="55" height="42.983" viewBox="0 0 55 42.983">
  <path id="_" data-name="" d="M1125.406,2282H1079v-36.105h46.406Zm-44.687-34.386V2270.5l11.172-11.283,12.246,13.969,8.486-5.157,11.064,9.563v-29.98Zm42.969,32.667v-.429l-11.279-9.672-8.7,5.158-11.817-13.539-11.172,11.067v7.415Zm-36.953-41.263H1134v36.105h-7.734V2273.4h6.016v-32.667h-43.828v4.3h-1.719Zm21.484,18.913a5.136,5.136,0,1,1,1.5,3.653A4.973,4.973,0,0,1,1108.219,2257.929Zm1.719,0a3.31,3.31,0,1,0,.967-2.472A3.345,3.345,0,0,0,1109.937,2257.929Z" transform="translate(-1079 -2239.016)" fill="#b27cf5"/>
</svg>
