<svg xmlns="http://www.w3.org/2000/svg" width="50.043" height="44.344" viewBox="0 0 50.043 44.344">
  <path id="_" data-name="" d="M1423.49,5951.307h-1.955v26.979H1375.4v-26.979h-1.955v-7.75h15.932a5.835,5.835,0,0,1,.2-7.946,5.567,5.567,0,0,1,4.105-1.668,5.9,5.9,0,0,0,9.578,0,5.771,5.771,0,0,1,4.3,9.615h15.932Zm-22.92-14.323a3.851,3.851,0,0,0-1.124,2.747v3.826h3.812a3.824,3.824,0,0,0,2.737-1.128,3.61,3.61,0,0,0,1.173-2.7,3.847,3.847,0,0,0-3.91-3.924A3.583,3.583,0,0,0,1400.57,5936.984Zm-9.627,5.444a3.822,3.822,0,0,0,2.737,1.128h3.812v-3.826a3.857,3.857,0,0,0-1.124-2.747,3.587,3.587,0,0,0-2.688-1.178,3.847,3.847,0,0,0-3.91,3.924A3.61,3.61,0,0,0,1390.942,5942.429Zm-15.541,6.917h22.089v-3.827H1375.4Zm1.857,27.076h20.232v-25.115h-20.232Zm42.419-25.115h-20.232v25.115h20.232Zm1.857-5.788h-22.089v3.827h22.089Z" transform="translate(-1373.447 -5933.942)" fill="#feb960"/>
</svg>
