<svg xmlns="http://www.w3.org/2000/svg" width="46.185" height="50.062" viewBox="0 0 46.185 50.062">
  <path id="_" data-name="î€" d="M798.7,5959.971a17.4,17.4,0,0,0-5.235,12.711v4.009H815.48v1.956H791.409v-5.965a19.6,19.6,0,0,1,4.11-12.222,18.882,18.882,0,0,1,10.372-7.04,12.907,12.907,0,0,1-4.794-4.4,11.333,11.333,0,0,1-1.859-6.355,11.5,11.5,0,0,1,3.572-8.506,12.011,12.011,0,0,1,20.5,8.506,11.8,11.8,0,0,1-1.81,6.4,11.564,11.564,0,0,1-4.843,4.351,19.41,19.41,0,0,1,9.1,5.28h-3.033a17.508,17.508,0,0,0-11.253-4.009A17.3,17.3,0,0,0,798.7,5959.971Zm12.769-7.333a9.808,9.808,0,0,0,7.143-2.885,10.027,10.027,0,0,0,0-14.177,9.817,9.817,0,0,0-7.143-2.884,9.973,9.973,0,1,0,0,19.946Zm26.126,22.1h-6.067v5.964H829.57v-5.964H823.5v-2.054h6.067v-5.964h1.957v5.964h6.067Z" transform="translate(-791.409 -5930.638)" fill="#38c695"/>
</svg>
