<svg xmlns="http://www.w3.org/2000/svg" width="50.099" height="42.856" viewBox="0 0 50.099 42.856">
  <path id="_" data-name="" d="M1132.551,5947.686a12.958,12.958,0,0,1-3.914,9.485l-21.135,20.052-21.135-19.855a13.338,13.338,0,0,1-3.914-9.633,13.01,13.01,0,0,1,3.914-9.534,13.215,13.215,0,0,1,9.785-3.834,12.738,12.738,0,0,1,9.394,3.834,30.856,30.856,0,0,1,2.153,2.949,11.344,11.344,0,0,1,2.153-2.949,13.424,13.424,0,0,1,18.787,0A12.961,12.961,0,0,1,1132.551,5947.686Zm-2.153-.246a11.015,11.015,0,0,0-3.327-8.06,10.514,10.514,0,0,0-8.024-3.342,11.027,11.027,0,0,0-8.121,3.342q-.784.984-1.663,2.261l-1.761,2.949-1.761-2.949a18,18,0,0,0-1.663-2.261,11.582,11.582,0,0,0-16.341,16.415l19.765,18.971,19.766-18.971a11.322,11.322,0,0,0,3.131-8.355Z" transform="translate(-1082.452 -5934.366)" fill="#b27cf5"/>
</svg>
