<svg xmlns="http://www.w3.org/2000/svg" width="27.891" height="30" viewBox="0 0 27.891 30">
  <path id="_" data-name="î«" d="M1451.281,13590.851a6.267,6.267,0,0,1-1.055,4.98,5.85,5.85,0,0,1-3.164,1.935,17.218,17.218,0,0,1-2.285.41h-2.93a7.082,7.082,0,0,1-1.055-.118,16.3,16.3,0,0,1-3.809-.937,5.1,5.1,0,0,1-2.637-2.636,10.029,10.029,0,0,1-.293-1.23v-1.173a.522.522,0,0,0,.059-.234,3.814,3.814,0,0,1,.469-1.523,2.236,2.236,0,0,1,.234-.409q.292-.117.615.409a1,1,0,0,1,.146.938,3.934,3.934,0,0,0-.234,2.05,3.185,3.185,0,0,0,1.758,2.462,5.5,5.5,0,0,0,1.875.7,18.076,18.076,0,0,0,5.1.41,8.881,8.881,0,0,0,2.813-.41,4.518,4.518,0,0,0,2.578-1.7,4.918,4.918,0,0,0,.645-2.7,4.11,4.11,0,0,0-1.465-3.339.4.4,0,0,0-.293-.118,49.752,49.752,0,0,0-5.8-.409,16.626,16.626,0,0,0-3.691.527,1.25,1.25,0,0,0-.322.059,1.9,1.9,0,0,0-.322.117.552.552,0,0,1-.381-.234,1.533,1.533,0,0,1-.293-.469.314.314,0,0,1,.029-.353,18.689,18.689,0,0,1,7.031-.878c.156,0,.41.02.762.059a7.871,7.871,0,0,0,.82.058,7.486,7.486,0,0,0-.586-.5q-.411-.322-.586-.439a2.8,2.8,0,0,1-1.113-2.871.245.245,0,0,0-.059-.177h-.117a7.428,7.428,0,0,1-2.637,0,6.649,6.649,0,0,1-5.449-4.453,8.474,8.474,0,0,1-.41-4.159,6.953,6.953,0,0,1,1.23-3.281,7.113,7.113,0,0,1,4.395-2.7q.293-.059.791-.146a4.7,4.7,0,0,1,.732-.088,67.7,67.7,0,0,1,7.969,0q.233,0,.352.41a.568.568,0,0,1-.059.556.59.59,0,0,1-.527.265h-2.754a.665.665,0,0,0-.293.058,1.9,1.9,0,0,1,.322.235,1.111,1.111,0,0,1,.264.292,7.106,7.106,0,0,1,2.4,4.512,7.737,7.737,0,0,1-1.758,6.035,13.758,13.758,0,0,1-1.934,1.465,6.705,6.705,0,0,0-.7.587,1.358,1.358,0,0,0-.176,2.167,4.708,4.708,0,0,0,1.172.938q2.578,1.759,2.7,1.876h0a5.313,5.313,0,0,1,1.934,3.163Zm-3.75-11.308a5.333,5.333,0,0,0,1.289-3.105,5.655,5.655,0,0,0-.586-3.575,5.834,5.834,0,0,0-4.219-3.223,7.794,7.794,0,0,0-4.687.762,4.6,4.6,0,0,0-2.461,2.813,7.279,7.279,0,0,0-.469,2.813,6.247,6.247,0,0,0,.82,3.1,5.854,5.854,0,0,0,5.449,2.872,7.225,7.225,0,0,0,4.863-2.461Zm14.414,2.871v.352a.889.889,0,0,1-.879.469h-3.105c-.274,0-.41.116-.41.351v3.165q0,.877-.586.878a.768.768,0,0,1-.645-.878v-3.223a.259.259,0,0,0-.293-.293H1452.8q-.821,0-.82-.587,0-.643.82-.644h3.164q.352,0,.352-.411v-3.4q.117-.645.645-.528.585,0,.586.528v3.516q0,.293.352.293h3.164a1.011,1.011,0,0,1,.879.41Z" transform="translate(-1434.055 -13568.176)" fill="#fff"/>
</svg>
