<svg xmlns="http://www.w3.org/2000/svg" width="30.044" height="25.333" viewBox="0 0 30.044 25.333">
  <path id="_" data-name="î¨" d="M1372.883,13574.327a4.249,4.249,0,0,1-.879,1.289,3.564,3.564,0,0,0-1.26,1.377,6.322,6.322,0,0,0-.586,1.523,17.15,17.15,0,0,0-.264,1.788,17.073,17.073,0,0,1-4.307,9.668,17.195,17.195,0,0,1-21.709,3.4,1.388,1.388,0,0,0-.322-.175,1.319,1.319,0,0,1-.322-.176,2.354,2.354,0,0,1-.205-.265.267.267,0,0,1,.029-.381.489.489,0,0,1,.205-.321.4.4,0,0,1,.293-.06c.1.021.214.04.352.06a2.378,2.378,0,0,0,.322.028,11.345,11.345,0,0,0,5.391-.469q.879-.233,1.055.294.117.527-.7.762-.527.176-1.553.439t-1.611.439a14.751,14.751,0,0,0,6.387,1.172,15.607,15.607,0,0,0,10.547-4.424,17.428,17.428,0,0,0,5.039-9.756,4.965,4.965,0,0,0,.117-.82v-1.2c0-.1.009-.293.029-.585a1.783,1.783,0,0,1,.117-.616,4.98,4.98,0,0,0,.205-.5,1.163,1.163,0,0,1,.322-.5q.2-.174.5-.38a5.191,5.191,0,0,1,.645-.382.862.862,0,0,1-.234-.176l-.117-.059a2.166,2.166,0,0,0-.557.118,1.615,1.615,0,0,1-.645.087.59.59,0,0,1-.439-.381.523.523,0,0,1-.029-.556,1.582,1.582,0,0,1,.5-.41,2.531,2.531,0,0,0,.469-.323l.352-.527-.176-.176a3.494,3.494,0,0,1-3.516-.586,4.748,4.748,0,0,0-5.244-.234,5.088,5.088,0,0,0-2.842,4.57,4.247,4.247,0,0,1-.41,2.08q-.294.265-2.168-.088a19.432,19.432,0,0,1-9.844-5.273,3.68,3.68,0,0,0-.439,2.813,6,6,0,0,0,1.494,2.929,2.5,2.5,0,0,0,.469.323.97.97,0,0,1,.41.352,1.281,1.281,0,0,1,0,.556.688.688,0,0,1-.439.411,1.378,1.378,0,0,1-.7-.088,2.338,2.338,0,0,0-.615-.146,5.649,5.649,0,0,0-.645-.177,5.414,5.414,0,0,0,3.281,4.277l.469.118a1.1,1.1,0,0,1,.645.293.612.612,0,0,1,.059.469c-.079.351-.586.566-1.523.644l-.586.118a5.174,5.174,0,0,0,3.574,2.812h.41a3.209,3.209,0,0,1,.352.059,1.876,1.876,0,0,1,.41.118.754.754,0,0,1,.234.2.529.529,0,0,1,.059.44q-.118.645-1.23.352a6.217,6.217,0,0,1-4.395-2.872,2.73,2.73,0,0,1-.234-.321,4.02,4.02,0,0,1-.234-.381c-.039-.078-.1-.2-.176-.353a.929.929,0,0,1-.117-.409,3.242,3.242,0,0,1,.029-.41,1.426,1.426,0,0,1,.146-.469,1.128,1.128,0,0,1,.029-.352q.029-.059-.264-.294l-.234-.175a6.616,6.616,0,0,1-1.875-3.75,3.1,3.1,0,0,0-.059-.353,2.812,2.812,0,0,1-.059-.351v-.265a.4.4,0,0,1,.088-.293,1.075,1.075,0,0,1,.264-.176,1.937,1.937,0,0,1,.469-.146c.352-.037.39-.234.117-.585-.079-.078-.117-.137-.117-.177a6.753,6.753,0,0,1-.234-5.508q.352-.995.732-1.054t1.084.7a16.75,16.75,0,0,0,8.965,5.273,1.892,1.892,0,0,0,1.23-.03q.352-.2.41-1.083a6.964,6.964,0,0,1,3.457-5.333,5.379,5.379,0,0,1,5.8,0,4.154,4.154,0,0,0,4.629,0q.761-.352,1.113,0,.292.294-.117,1.055a3.018,3.018,0,0,1-.234.587,4.345,4.345,0,0,0-.234.527.54.54,0,0,0,.645.058.985.985,0,0,1,.234-.058h0q.937,0,.527.819Z" transform="translate(-1342.963 -13570.49)" fill="#fff"/>
</svg>
