<svg xmlns="http://www.w3.org/2000/svg" width="30" height="30" viewBox="0 0 30 30">
  <path id="_" data-name="î­" d="M1418,13595.3a3.1,3.1,0,0,1-.645,2.228,3.281,3.281,0,0,1-2.227.7h-24.316a2.491,2.491,0,0,1-2.812-2.754v-5.977q0-1.055.645-1.055.527.059.527,1.055v5.684a1.631,1.631,0,0,0,1.816,1.874h24.023a1.58,1.58,0,0,0,1.816-1.758v-9.434a1.378,1.378,0,0,0-.234-.908.933.933,0,0,0-.82-.2,1.675,1.675,0,0,1-.879,0,4.918,4.918,0,0,0-3.076.322,4.236,4.236,0,0,0-1.787,2.548,5.653,5.653,0,0,1-2.842,3.341,7.132,7.132,0,0,1-4.365,1.055,8.857,8.857,0,0,1-4.629-1.875,7.118,7.118,0,0,1-2.578-3.926,1.686,1.686,0,0,0-1.992-1.465h-4.336q-1.289.117-1.289-1.114v-13.124q.117-2.285,2.754-2.285h24.492a2.434,2.434,0,0,1,2.754,2.754v24.315Zm-10.049-6.533a6.476,6.476,0,0,0,1.9-4.774,6.146,6.146,0,0,0-1.9-4.6,7.093,7.093,0,0,0-4.834-1.963,6.152,6.152,0,0,0-4.658,1.992,6.449,6.449,0,0,0,.059,9.433,5.69,5.69,0,0,0,4.658,1.817A6.476,6.476,0,0,0,1407.951,13588.771Zm8.613-5.536a1.257,1.257,0,0,0,.264-1.055q-.118-5.508,0-10.957a1.977,1.977,0,0,0-.439-1.437,1.92,1.92,0,0,0-1.494-.381H1390.93a1.953,1.953,0,0,0-1.348.381,1.748,1.748,0,0,0-.41,1.318v11.192a1.248,1.248,0,0,0,.264.938,1.2,1.2,0,0,0,.908.176q3.1,0,3.516.059a1.377,1.377,0,0,0,1.172-.118,1.964,1.964,0,0,0,.527-1.112,7.731,7.731,0,0,1,2.871-4.424,7.209,7.209,0,0,1,4.863-1.611,8.217,8.217,0,0,1,4.717,1.7,7.62,7.62,0,0,1,2.783,4.278,1.393,1.393,0,0,0,1.523,1.289,16.63,16.63,0,0,1,3.164-.059A1.3,1.3,0,0,0,1416.564,13583.234Zm-2.08-11.134a4.886,4.886,0,0,1,.352,2.461,4,4,0,0,1-.469,2.432,3.4,3.4,0,0,1-2.285.5,3.518,3.518,0,0,1-2.373-.527,4.229,4.229,0,0,1-.5-2.579q0-1.991.41-2.343a5.446,5.446,0,0,1,2.637-.352Q1414.132,13571.691,1414.484,13572.1Zm-.762,2.345a2.421,2.421,0,0,0-.381-1.377q-.323-.381-1.26-.147a1.69,1.69,0,0,0-1.348.147,1.51,1.51,0,0,0-.352,1.317,3.224,3.224,0,0,0,.322,1.465q.264.412,1.26.353a2.254,2.254,0,0,0,1.377-.41,1.822,1.822,0,0,0,.381-1.348Zm-8.086,13.477c-.039.156-.029.263.029.321s.019.128-.117.206a1.73,1.73,0,0,0-.234.146,1.806,1.806,0,0,1-.264.146l-.234.059a5.5,5.5,0,0,1-1.816.352,4.968,4.968,0,0,1-3.984-2.021,4.469,4.469,0,0,1-1-4.249,1.758,1.758,0,0,1,.059-.293,1.783,1.783,0,0,1,.117-.351.58.58,0,0,1,.176-.206.411.411,0,0,1,.352-.028q.585.059.469,1.112a3.831,3.831,0,0,0,1.23,3.838,4.227,4.227,0,0,0,4.043.733q1-.352,1.172.234Z" transform="translate(-1388 -13568.234)" fill="#fff"/>
</svg>
