<svg xmlns="http://www.w3.org/2000/svg" width="15" height="15" viewBox="0 0 15 15">
  <path id="_" data-name="î·" d="M1342.18,5522.82a2.713,2.713,0,0,1,.82,1.992v9.375a2.8,2.8,0,0,1-2.812,2.812h-9.375a2.8,2.8,0,0,1-2.812-2.812v-9.375a2.8,2.8,0,0,1,2.813-2.813h9.375A2.713,2.713,0,0,1,1342.18,5522.82Zm-1.992,2.343a.31.31,0,0,0-.352-.351h-8.672a.31.31,0,0,0-.352.351v8.672a.31.31,0,0,0,.352.351h8.672a.31.31,0,0,0,.352-.351Zm-2.812,2.461h1.875v-1.875h-1.875Zm-1.875,0a1.9,1.9,0,1,1-1.318.557A1.8,1.8,0,0,1,1335.5,5527.625Zm2.725,1.407h1.025v4.218h-7.5v-4.218h1.025a3.521,3.521,0,0,0-.059.468,2.665,2.665,0,0,0,.82,1.979,2.8,2.8,0,0,0,3.926,0,2.667,2.667,0,0,0,.82-1.979,3.609,3.609,0,0,0-.059-.468Z" transform="translate(-1328 -5522)" fill="#616161"/>
</svg>
