<svg xmlns="http://www.w3.org/2000/svg" width="15" height="15" viewBox="0 0 15 15">
  <path id="_" data-name="î˜" d="M1342.18,5461.82a2.713,2.713,0,0,1,.82,1.991v9.375a2.8,2.8,0,0,1-2.812,2.813h-9.375a2.8,2.8,0,0,1-2.812-2.812v-9.375a2.8,2.8,0,0,1,2.813-2.812h9.375A2.713,2.713,0,0,1,1342.18,5461.82Zm-2.021,4.043a5.036,5.036,0,0,1-1.055.292,1.706,1.706,0,0,0,.791-1.025,3.381,3.381,0,0,1-1.172.44,1.733,1.733,0,0,0-1.348-.586,1.756,1.756,0,0,0-1.3.557,1.792,1.792,0,0,0-.542,1.289,2.428,2.428,0,0,0,.059.439,5.134,5.134,0,0,1-3.809-1.933,1.9,1.9,0,0,0-.264.937,1.73,1.73,0,0,0,.85,1.523,1.587,1.587,0,0,1-.85-.233v.029a1.763,1.763,0,0,0,.425,1.157,1.894,1.894,0,0,0,1.069.659,3.54,3.54,0,0,1-.5.059,1.525,1.525,0,0,1-.352-.03,1.753,1.753,0,0,0,1.729,1.289,3.652,3.652,0,0,1-2.285.791c-.059,0-.137,0-.234-.015s-.166-.015-.205-.015a5.137,5.137,0,0,0,2.813.821,4.866,4.866,0,0,0,3.838-1.626,5.339,5.339,0,0,0,1.436-3.619.684.684,0,0,0-.015-.131.6.6,0,0,1-.015-.1,3.43,3.43,0,0,0,.938-.966Z" transform="translate(-1328 -5461)" fill="#616161"/>
</svg>
