<svg xmlns="http://www.w3.org/2000/svg" width="15" height="15" viewBox="0 0 15 15">
  <path id="_" data-name="î«" d="M1342.18,5430.82a2.713,2.713,0,0,1,.82,1.992v9.375a2.8,2.8,0,0,1-2.812,2.813h-9.375a2.8,2.8,0,0,1-2.812-2.812v-9.375a2.8,2.8,0,0,1,2.813-2.813h9.375A2.713,2.713,0,0,1,1342.18,5430.82Zm-4.57,5.127H1336.2v-.762a.9.9,0,0,1,.1-.5c.068-.1.239-.146.513-.146h.762v-1.553h-1.23a1.691,1.691,0,0,0-1.436.513,2.565,2.565,0,0,0-.381,1.537v.909h-1.143v1.552h1.143v4.512h1.67V5437.5h1.23Z" transform="translate(-1328 -5430)" fill="#616161"/>
</svg>
