<svg xmlns="http://www.w3.org/2000/svg" width="15" height="15.001" viewBox="0 0 15 15.001">
  <path id="_" data-name="îº" d="M1342.18,5491.82a2.713,2.713,0,0,1,.82,1.992v9.375a2.8,2.8,0,0,1-2.812,2.813h-9.375a2.8,2.8,0,0,1-2.812-2.813v-9.375a2.8,2.8,0,0,1,2.813-2.813h9.375A2.712,2.712,0,0,1,1342.18,5491.82Zm-8.555,3.75h-1.875v6.562h1.875Zm0-1.289a.868.868,0,0,0-.249-.615.883.883,0,0,0-1.26,0,.866.866,0,0,0-.249.615.879.879,0,1,0,1.758,0Zm6.563,3.837a3.818,3.818,0,0,0-.205-1.317,1.715,1.715,0,0,0-.513-.792,2.328,2.328,0,0,0-.586-.337,1.653,1.653,0,0,0-.571-.1,2.961,2.961,0,0,0-1.875.615v-.615h-1.875v6.562h1.875v-4.042l.059-.205a1.066,1.066,0,0,1,.366-.411,1.182,1.182,0,0,1,.718-.2q.732,0,.732.82v4.042h1.875Z" transform="translate(-1328 -5490.999)" fill="#616161"/>
</svg>
